<mxfile host="app.diagrams.net" modified="2023-08-02T11:43:31.213Z" agent="Mozilla/5.0 (Windows NT 10.0; Win64; x64) AppleWebKit/537.36 (KHTML, like Gecko) Chrome/115.0.0.0 Safari/537.36 Edg/115.0.1901.188" version="21.1.2" etag="38ZDCnjPm4nYVCX5UIge" type="github">
  <diagram name="PÃ¡gina-1" id="qFgTMPvM59LVLmVezNB7">
    <mxGraphModel>
      <root>
        <mxCell id="0" />
        <mxCell id="1" parent="0" />
      </root>
    </mxGraphModel>
  </diagram>
</mxfile>
